<svg xmlns="http://www.w3.org/2000/svg" width="360" height="360" viewBox="0 0 360 360">
    <g fill="none" fill-rule="evenodd">
        <path d="M0 0h360v360H0z" opacity=".703"/>
        <path fill="#EEE" fill-rule="nonzero" d="M274 263.4c11.3-6.2 23.8-9.8 35.6-15 11.8-5.2 23.3-12.6 29.6-23.8 13.2-23.7-1.3-53.9 4.9-80.4 2.9-12.4 10.4-23.5 13.1-35.9 4.2-19.7-4.8-41.2-21-53.2s-38.4-14.7-57.6-8.3c-14 4.6-27.3 13.8-41.9 11.9-13.8-1.7-24.3-12.7-34.6-22-10.4-9.3-24.2-17.9-37.4-13.5C156.3 26 150.2 33.7 147 42c-3.2 8.3-4 17.3-5.2 26.1-4.1 31.3-15 64.9-42 81.2-27.2 16.4-68.7 11.1-88.2 38.6-15.3 21.4-13.5 55.1 11.6 68.3 14.4 7.6 31.6 5.9 47.8 6.8 19.7 1.1 33.8 7.8 42.4 25.5 8.1 16.8 16.5 36.2 30.3 49.1 13 12.1 31.8 17.8 49.3 14.8 20-3.4 33.8-17.4 39.8-36.4 7.1-22.1 20.3-41.2 41.2-52.6"/>
        <path fill="#FFF" fill-rule="nonzero" d="M213.1 149.5c1.5-9 3-13.6 4.2-22.7v-5.5l-27.1-8.6c-1.1-1.2-2.7-1.8-4.2-2.6-1.5-.7-3-1.5-3.9-2.9-.9-1.4-1.2-3.6.1-4.6 2.1-1.7 3.3-4.4 5.1-6.4 1.7-2 3.8-4.4 6.1-5.7 2.4-1.3 4.3-3.4 6.2-5.3 4-4 8-8 12-12.1l.2-.2c3.2-3.3 7.7-5.8 11.8-7.7 2.3-1.1 4.8-2 6.5-3.9 1.6-1.8 2.1-4.3 2-6.7-.1-3.1-1.3-4-2.8-6.4-1.6-2.6-2.5-5.6-2.9-8.6-.5-4-.2-8 .2-12.1.2-1.8.4-3.7 1.1-5.4.7-1.7 2-3.3 3.7-4 2.5-1 5.3.1 7.8 1.2 3.8 1.7 7.6 3.5 11.3 5.4 3.6 1.8 7.3 3.9 9.3 7.3 2.6 4.5 1.5 10.3-.3 15.2-1.5 4-6.2 12.3-4 16.6.9 1.9 4.5 2.8 6.2 3.9 6.1 3.9 9.6 10.4 11.8 17.1.8 2.4 1.6 5.3.1 7.4-1 1.4-2.7 2-4.4 2.3-1.7.3-3.4.4-5 1s-3.1 2-3.1 3.7l-3.6 22.3c1.5 4.4.9 8.7-.8 13-1.7 4.3-4.9 8-9 10.3-2.9 1.6-6.3 2.5-8.7 4.9-2.6 2.5-3.5 6.2-4.3 9.7 0 2.6-1.3 5.8-1.9 8.3-.6 2.5-.4 4.8-.7 7.4-.8 5.7-2.1 11.4-4 16.8-.4 1.1-1.1 2.4-2.2 2.5-1.2.1-2.1-1.2-2.6-2.4-2.1-4.8-3.5-9.9-4-15.1-.5-4.5-.3-9-.9-13.5-.6-4.5-1.9-9-4.9-12.4"/>
        <path fill="#FFF" fill-rule="nonzero" d="M266.8 287.2c1.3-8.9 1.3-18 1.2-27-.2-8.4-2.4-16.7-2-25.2.3-5.9 1.3-11.7 1.7-17.6.8-12.2-3-24.9-7.8-36.1-4.8-11.3-12.5-21.6-23.2-27.6-1.8-1-4.1-1.8-5.7-.6-1.4 1.1-1.3 3.2-1.2 5 .8 9.4.8 19.4-2.8 27.9v-38.6h-85V315h79.9l1.9-6.5v.2l1.3 6.3h2v-23.7l.3 3.9L239 193l18.7 106.9c.8 3.2.2 6.1-1.1 9.1-.5 1.1-1.1 2.1-1.4 3.2-.3 1.1-.3 2.5.5 3.4.7.9 2.5 1.4 3.3.5h7.6c-1.3-4.8-2-9.9-1.9-14.9.7-4.7 1.4-9.3 2.1-14z"/>
        <path fill="#FFF" fill-rule="nonzero" d="M256.9 125.2c5.1 12 9.9 25.8 10.6 39 .8 14.8 1.1 29.6.2 44.4 0 .5-.1 1-.5 1.2-.6.4-1.3-.3-1.7-.9-10-15.9-19.8-32.4-34-44.6-3-2.6-6.5-5.4-7.3-9.3-1-4.7 2-9.2 5.1-12.8 6-7 12.8-13.3 20.3-18.6"/>
        <path fill="#FFF" fill-rule="nonzero" d="M260.7 92l9.4 24.9-9.5 32.9 4.8.7c0-.3-.1-.9-.1-1.1l14.1-25.3c2-3.8 2.4-7.9 1.9-12.1l-8.4-29"/>
        <path fill="#EEE" fill-rule="nonzero" d="M152.2 111.4h12.3v36.9h-12.3z"/>
        <path fill="#C2C9F1" fill-rule="nonzero" d="M154.6 106.2h7.2v4.9h-7.2z"/>
        <path fill="#FFF" fill-rule="nonzero" d="M175.1 132.2c.4 1.4.1 2.9-.3 4.3s-1.2 2.7-1.7 4c-.5 1.4-.8 2.9-.4 4.3.3 1.4 1.4 2.6 2.9 2.8l12.3-.2c1.4-1 1.9-3.3 1.6-5-.3-1.7-1.2-3.2-1.8-4.9-.6-1.7-.9-3.5-.2-5l-12.4-.3z"/>
        <path fill="#4E65D9" fill-rule="nonzero" d="M223.8 114.5c-.1-.8-.1-1.5-.2-2.3 0-.2 0-.4-.1-.6-1.1-11.3-3-22.5-7.7-32.9l-24.3.8.9 2.8L213 82s7.6 15.6 7.6 30c1.4-1.1 2-1.1 2-1.1"/>
        <path fill="#9CA9EA" fill-rule="nonzero" d="M233.7 57.7c1.2.7 4-.5 5-.9.7-.3 1.3-.5 2-.8 1.8-.9 3.2-2 4.3-3.8-.1.1-1.1.2-1.3.3-.6.1-1.1.2-1.7.2-1.1.1-2.2.2-3.3.2-.5 0-4.3-.4-4.2-.8-.2.8-.2 1.7-.5 2.5-.2.6-.9 1.4-.8 2 0 .7.2 1 .5 1.1z"/>
        <path fill="#EEE" fill-rule="nonzero" d="M234.6 173.7c0 13.5-3 27.1-4.2 40.6-2.3 27.2-1.8 54.3-3.6 81.5l12-104.6M153.8 233.7c-.8 10 .1 20 2.6 29.7 3.7 14.4 10 27.5 24.7 33.2 5.9 2.3 12.2 3.6 17.7 6.8-4.6-.4-9.1-.8-13.7-1.3 1.1-.6 3.6.5 4.6 1.3-4.6-1.1-9.3-1.5-14-1.1l-12.9 1.6c-3.5 0-7-2.2-10.2-1M223.5 122.5c2.3.9 4.5 2 6.8 2.9 2.9 1.1 5.9 2.1 9 2.6 2.5.4 4.9.6 7.4.7 1.1 0 2.3.2 3.4 0 .2 0 .7-.2.7.1.1.3-.7.6-.8.7l-.9.6c-.4.2-.8.4-1.3.5-4.4 1.2-8.9 1.8-13.5 1.9-1.1 0-2.3 0-3.4-.2-1-.2-2-.5-2.9-.9-.8-.3-1.4-.4-2.2-.5-1.4-.2-2.7-.4-4-.8-1.6-.5-3.2-1.4-4.2-2.8-1.2-1.7-1.3-3.8-1.1-5.7.1-1.4 3.4-.5 7 .9zM254.6 314.4c-.1-.6.3-1.1.6-1.5 1-1.3 1.9-2.5 2.9-3.8 1.6 2.2 3.2 4.3 4.8 6.5-2.1.2-4.2.1-6.3 0-.8-.1-1.8-.4-2-1.2zM259 86.8v.3l12.3 25.8-1.3 3.2M239.3 72.9c.3-.7-.1-1.5-.6-2-.6-.5-1.3-.7-2.1-.9-3.9-.9-8.1-1.3-12.1-.6-3.5.6-6.9 2-10.4 1.9.5-1.1 1.6-1.8 2.7-2.3 3.7-1.9 7.6-3.4 11.6-4.7.9-.3 1.9-.6 2.9-.4 1 .2 1.8.8 2.7 1.2 1.7.9 3.5 1.3 5.3 1.8M211.2 307.9c-.5.3-1 .7-1 1.3-.1 1.1 1.2 1.7 2.2 1.9 1.8.4 3.6.9 5.4.8 1.8-.1 3.7-.7 4.9-2.1-.2 1.6-.5 3.3-1.1 4.7-.1.1-.1.3-.2.4-.3.3-.8.3-1.2.3-3.3-.2-6.6-.2-9.9 0-1 0-2.1 0-2.7-.7-.5-.5-.6-1.3-.5-2 .1-.5.2-.9.4-1.3.4-.8 1.2-1.4 2-1.9.4-.2.7-.4 1-.7.2-.1.4-.5.7-.7zM183.7 100c.2 3.2 2.2 6.1 4.6 8.2 2.4 2.1 5.4 3.5 8.3 4.8 2.9 1.4 5.9 2.8 8.8 4.2.1.1-.1.2-.3.2-6.8-1.6-13.9-3.2-19.7-7.2-.9-.6-1.9-1.4-2.5-2.3-.5-1 .3-6.8.8-7.9zM152 199.3c2.7 5.6 5.8 11.8 11.3 15.2 2.7 1.7 5.9 1.9 9 2.7 4 1.1 8.1 1.9 12.3 2.6-3.2.8-6.6-.2-9.9-.1l-10.2.3c-4.3.1-8.7.3-13 .4M152.5 166.7c.8 9.3 12.3 12.4 17.4 18.7-1.8-2.2-13.8-1.7-16.6-2.1-.3 0-.7-.1-1-.3-.4-.3-.4-.9-.5-1.3 0-3.4.1-11.6.7-15z"/>
        <g fill="#EEE" fill-rule="nonzero">
            <path d="M175.6 147.9h2.5-2.5zM152.5 303.3v-74.5h3.8c-.1-.5-.1-1-.2-1.5-.2-1.6-.3-3.8-.5-6.4h-3.1v-27.6h3c.2-2.8.4-5.6.7-8.4h-3.7v-27.6h10.8c3-5.3 7-8.8 12.3-9.3l-32.3.1-2.2 162c0 1.5 2.2 2.9 2.2 4.4h47.9c-2.9-3.6-5.6-7.4-8.2-11.2h-30.5z"/>
        </g>
        <path stroke="#514E4F" stroke-linecap="round" stroke-linejoin="round" d="M113 253.9h29.3v60.3H113z"/>
        <path fill="#EEE" fill-rule="nonzero" d="M175 136.6c-.7 1.8-.4 4 .7 5.6.9 1.3 2.3 2.3 3.8 2.9 1.5.6 3.1.9 4.7 1.1 1 .1 2 .2 2.9.8.1.1.2.2.2.3 0 .1-.2.2-.3.1h-6.2c-2.5 0-7 1.2-7.8-1.7-.6-2-.1-4.3 1.1-6"/>
        <path fill="#3F58D6" fill-rule="nonzero" d="M266.8 28c-2.5-10.1-8.9-18.7-19.4-20.7-6.1-1.1-12.7-.8-17.7 3.3s-6.1 11.1-.3 15.1c6.8 4.7 15.6 6.6 23.5 8.6.4.1.9.3 1.3.5.8.6 1.2 1.6 1.4 2.6.1.4.2.8.2 1.3-.1.6-.5 1-.9 1.4-1 1.1-1.9 1.8-2 3.3v.8l-.1-.9v1c0 .2.1.5.1.7 0 1.1 0 2.2-.1 3.3-.3 3.7-.5 7.4-.8 11.1-.1 1.2-.1 2.6.6 3.6s2.1 1.3 3.2.9v.3c9.6-8.1 14-24.2 11-36.2zM225.8 29.7c-.3 3.7 0 7.5.7 11.2.5 2.6 1.3 5.1 3 7.2 1.3 1.6 3 2.8 4.9 3.5l-2.1 11.8c-4.5-.2-8.6 2.4-12.5 4.5-1.8 1-3.6 1.9-5.3 3.1-.8.6-2 1.2-2.6.4-.2-.2-.2-.5-.3-.8-.7-4-1.4-8.3.1-12.1.5-1.4 1.4-2.7 1.9-4.1.6-1.6.9-3.3 1.7-4.8.4-.8 1-1.6 1.5-2.4.5-.7.9-1.5 1.4-2.3 1.3-2.2 2.5-4.4 3.8-6.6 1.4-2.8 3.1-5.6 3.8-8.6z"/>
        <path fill="#304BD3" fill-rule="nonzero" d="M230.6 10.1c-3.2 3.2-3.4 8.8-.5 12.2 2.6 3 6.8 3.7 10.4 4.7 4.2 1.2 9.2 3.5 12.3 6.6-3.6.4-7.5-1.4-10.8-2.4-3.4-1-6.8-2.3-10-3.7-1.1-.5-2.1-1-3.1-1.6-2.1-1.5-3.4-3.9-3.6-6.4-.2-2.5.7-5.1 2.5-7"/>
        <path fill="#5067DA" fill-rule="nonzero" d="M255.6 39.2c1.4 5.5 1.4 11.3 0 16.8-.6 2.4-1.5 4.7-2.4 7-.2.6-.9 1.2-1.3.8-.4-6.3-.3-12.5.2-18.8.1-.7.1-1.3.4-1.9.8-1.6 2.7-2.3 3.1-3.9zM261 27.7c.1 0 .2-.1.3-.2 1.5-1.2.6-4.7-.2-6.2-1.2-2.2-2.9-4.3-4.8-6-3.8-3.4-8.6-5.6-13.7-6.1-1.2-.1-2.4-.1-3.5.3s-2 1.5-2.1 2.7c0 1.5 1.4 2.7 2.7 3.5 3.4 2 7.1 3.3 10.5 5 1.7.9 3.4 1.8 5 3 1.5 1.1 2.6 3.1 4.2 3.9.6.2 1.2.3 1.6.1z"/>
        <path stroke="#0223C9" stroke-linecap="round" stroke-linejoin="round" d="M250.9 13.4c2.5 1.3 4.7 3.1 6.4 5.2M244.4 11c1.1.3 2.2.6 3.3 1.1"/>
        <path fill="#5067DA" fill-rule="nonzero" d="M261.8 41.3c0 1.3-.2 2.6-.4 3.9-.4 2.5-.8 4.9-1.2 7.4.2.2.4-.1.5-.3 2-4.2 3.1-8.8 3.5-13.5 0-.6.1-1.3-.2-1.9-.3-.6-1-1-1.6-.7-.8 1.5-.5 3.4-.6 5.1zM195.2 104.8c-1.3-7.7-2.9-15-6.1-22.1l24.3-.8c4.4 9.7 5.9 19.2 6.9 29.7l-4.3 3.1-20.8-9.9z"/>
        <path fill="#304BD3" fill-rule="nonzero" d="M194.1 99.1c.1-.2.1-.4.2-.7 3.7 4.9 10.1 6.8 16.2 7.7 2 .3 4.1.5 5.8-.6 1.5-.9 2.3-2.7 2.1-4.4 1.3 1.8 1.8 4.1 2.3 6.3.3 1.5.6 3.2-.1 4.6-1.1 2.1-4.1 2.4-6.3 1.6-2.2-.8-4-2.5-6.2-3.6-2.1-1-4.4-1.4-6.7-1.9-1.5-.3-3.1-.8-4.3-1.8-1.3-1-3.4-5.7-3-7.2z"/>
        <path stroke="#514E4F" stroke-linecap="round" stroke-linejoin="round" d="M152 147.5V111h12.3v35.7M154.7 110.6v-4.2h6.8v4.6M211.3 184.8h-59.2v-27.6h60.3M211.8 220.6h-59.7v-27.5h59.4M215.2 303.3h-63.1v-74h59.4"/>
        <path stroke="#0223C9" stroke-linecap="round" stroke-linejoin="round" d="M226.1 26.4c-1.6 8.1-6.3 14.9-10.2 22.2-3.9 7.3-6.8 16.1-3.8 23.8"/>
        <path stroke="#514E4F" stroke-linecap="round" stroke-linejoin="round" d="M213.8 147.5h-71.4v166.4"/>
        <path stroke="#514E4F" stroke-linecap="round" stroke-linejoin="round" d="M238.9 191.2c-3.1 32.5-11.5 105.3-11.5 105.3l.3 19h-2.4l-1.6-8-1.8 8H209c-1.1 0-2.2-.7-2.5-1.8-.8-2.6 3-4.3 4.6-5.6 2.5-2.1 4.3-4.7 5.9-7.5 1-1.8 1.5-3.7 1.7-5.6v-1.5c-.3-3.6-.9-7.2-1.2-10.8-3.7-38.9-7.6-78.2-5.2-117.3.8-12.8 2.3-25.6 4.7-38.2.1-.3.1-.6.1-1 0-1.3.2-3.8.3-4.9"/>
        <path stroke="#514E4F" stroke-linecap="round" stroke-linejoin="round" d="M235.4 173.9c2.2 9.1 7.9 42.5 9.3 51.6 3.7 26.1 13.1 75.9 13.1 75.9.2 2.7.3 5.5-.8 7.9-.3.7-.8 1.4-1.1 2.2-.5 1.2-.8 2.6-.6 3.9 0 .2.1.7.2.6M218.7 295.3c.2.6.9 1.1 1.6 1.2h5.1s2 .1 2.1-1.2M257 295.3c.2.6.8 1.1 1.5 1.2h5s2 .1 2.1-1.2M245.6 51.4c-5.5 1.6-11.7 2.3-15.6-2.7-.4-.5-.7-1-1-1.6-4.2-7.8-3.4-15.6-2.5-24.1M232 63.6l2.2-11.8"/>
        <path stroke="#514E4F" stroke-linecap="round" stroke-linejoin="round" d="M233.3 43.4c-.2 0-.3.1-.4.3-.3.9 1 3.2 5.5 3 1.4-.1 2.7-.6 3.7-1.7.2-.3 1.4-1.7.2-1.7-.4 0-9 .1-9 .1zM259.1 155.2c-.4 1.2-1.6 2.7-2.5 3.7-.4.4-.6.7-1.2.5-.5-.1-.8-.4-.8-.9s.1-1 .2-1.5c.3-1 .7-1.9 1.2-2.7 1.1-1.8 2.6-3.3 4-4.8M259.1 155.2h6.9M262.9 141.3l8.5-27.7M260.2 149.5l2.7-8.2M262.9 140.8c-1.4-4.1-6.2-15.7-5.4-20.3.7-3.8 3.5-20.4 4.6-24"/>
        <path stroke="#514E4F" stroke-linecap="round" stroke-linejoin="round" d="M216.9 127.2c1.6 1.4 3.6 2.3 5.7 3 11.6 3.9 25.1 2.4 35.4-4M255.6 316.1h10.2c.2 0 .3 0 .5-.1.1-.1.1-.2.1-.4 0-1.3-.3-2.6-.6-3.8-1.8-9.6.3-18.9 1.3-28.5.7-5.8 1-11.7.9-17.6 0-8.5-1.7-16.8-2.1-25.4-.5-10 1.3-20.1 2.2-30 .7-7.8.7-15.5.8-23.3.1-10.1.1-20.3-1.8-30.3-.5-2.6-1.1-5.2-1.7-7.8M205.6 78.8c.4-.5.9-.9 1.3-1.4 6-6.4 12.5-10 20.6-12.6 1.6-.5 2.9-.9 4.5-1.2M217.3 121.4c-4.1-.9-8.2-2-12.2-3.2-7-2.1-15.8-4.2-21.6-9-4.7-4 1.9-10.9 4.7-13.8 1.2-1.3 2.5-2.5 3.8-3.8M258.3 86.9l11.8 29.8M235.6 120.7c.4-12.3 1.4-24.6 3-36.8.7-5.5 1.1-10.9 1.4-16.4M217.6 121.6c1.2.1 2.4.2 3.6.1 1.1-.1 2.4-.3 3.3-1 .5-.4 1-.9 1.1-1.5v-.9c0-.4.1-.7.3-1 .3-.4.3-.9.2-1.3-.3-.8-.9-.9-1.7-1-.9-.2-1.8-.2-2.7-.1"/>
        <path stroke="#0223C9" stroke-linecap="round" stroke-linejoin="round" d="M223.8 114.5c-1.1-12.3-2.9-24.5-8-35.8l-24.3.8.9 2.8"/>
        <path stroke="#0223C9" stroke-linecap="round" stroke-linejoin="round" d="M195.2 104.8c-1.3-7.7-2.9-15-6.1-22.1l24.3-.8c4.4 9.7 5.9 19.2 6.9 29.7"/>
        <path stroke="#514E4F" stroke-linecap="round" stroke-linejoin="round" d="M216.8 114.7c1.1-.8 2.1-1.6 3.2-2.4.3-.2.7-.5 1-.7.3-.2.5-.5.9-.6 1.2-.2 1.7 1.1 1.5 2-.1.6-.6 1.4-1 1.7M202.1 314.2H51.7M231.6 63.9c6.3 3.6 14.6 3.3 20.6-.8"/>
        <path stroke="#0223C9" stroke-linecap="round" stroke-linejoin="round" d="M195.7 88l13.4-.7M197 91.6l13.4-.7M198.4 95.2l12.9-.6M228.6 11.6c-4.1 4.2-4.6 10.4.7 14.1 6.1 4.2 14.4 5.9 21.2 8.2"/>
        <path stroke="#0223C9" stroke-linecap="round" stroke-linejoin="round" d="M231.1 9.6c-.5.3-1 .7-1.5 1.1-.4.3-.7.6-1.1 1M255.6 64.3c9.8-8.1 14.2-24.2 11.2-36.3-2.5-10.1-8.9-18.7-19.4-20.7-5.5-1-11.5-.8-16.3 2.3"/>
        <path stroke="#514E4F" stroke-linecap="round" stroke-linejoin="round" d="M249.6 34.4c.6-.3 1.2-.4 1.9-.4 2.3 0 4.1 1.8 4.1 4.1s-1.8 4.1-4.1 4.1c-.5 0-.9-.1-1.3-.2"/>
        <path stroke="#514E4F" stroke-linecap="round" stroke-linejoin="round" d="M252.5 42.1c-.3 8.7-.8 15.4-1 18.8-.3 3.4 4.6 3.8 6.9 4.9 3.5 1.6 6.9 3.7 9.2 6.9 6.5 9.1 13.3 37.3 13.8 40.7 1.1 6.4-2 10.8-4.9 16.2l-11.8 20M192.6 104l25.1 11.5M181.1 171h9.2M181.1 207h9.2M181.1 266.3h9.2"/>
        <g stroke="#514E4F" stroke-linecap="round" stroke-linejoin="round">
            <path d="M174 132.4h14.2M174.8 147.3c-.7 0-1.2-.6-1.6-1.2-.9-1.6-1-3.7-.4-5.5.5-1.3 1.2-2.5 1.7-3.8.5-1.3.7-2.9-.1-4M187.6 132.8c-.8 1.2-.6 2.7-.1 4 .5 1.3 1.3 2.5 1.7 3.8.6 1.8.6 3.8-.4 5.5-.3.6-.9 1.2-1.6 1.2"/>
        </g>
        <path stroke="#514E4F" stroke-linecap="round" stroke-linejoin="round" d="M183.2 131.9l2.2-7.6"/>
    </g>
</svg>
